<svg xmlns="http://www.w3.org/2000/svg" style="display:none">
  <symbol id="icon-overview" viewBox="0 0 24 24">
    <rect x="3" y="3" width="8" height="8" rx="1.5" fill="currentColor" />
    <rect x="13" y="3" width="8" height="5" rx="1.5" fill="currentColor" />
    <rect x="13" y="10" width="8" height="11" rx="1.5" fill="currentColor" />
    <rect x="3" y="13" width="8" height="8" rx="1.5" fill="currentColor" />
  </symbol>

  <symbol id="icon-analytics" viewBox="0 0 24 24">
    <path d="M4 19V5" stroke="currentColor" stroke-width="2" stroke-linecap="round" />
    <path d="M4 19H20" stroke="currentColor" stroke-width="2" stroke-linecap="round" />
    <rect x="7" y="11" width="3" height="8" rx="1" fill="currentColor" />
    <rect x="12" y="8" width="3" height="11" rx="1" fill="currentColor" />
    <rect x="17" y="5" width="3" height="14" rx="1" fill="currentColor" />
  </symbol>

  <symbol id="icon-apps" viewBox="0 0 24 24">
    <rect x="4" y="4" width="6" height="6" rx="1.2" fill="currentColor" />
    <rect x="14" y="4" width="6" height="6" rx="1.2" fill="currentColor" />
    <rect x="4" y="14" width="6" height="6" rx="1.2" fill="currentColor" />
    <rect x="14" y="14" width="6" height="6" rx="1.2" fill="currentColor" />
  </symbol>

  <symbol id="icon-hourly" viewBox="0 0 24 24">
    <circle cx="12" cy="12" r="9" stroke="currentColor" stroke-width="2" fill="none" />
    <path d="M12 7V12L16 14" stroke="currentColor" stroke-width="2" stroke-linecap="round" stroke-linejoin="round" />
  </symbol>

  <symbol id="icon-focus" viewBox="0 0 24 24">
    <circle cx="12" cy="12" r="8.5" stroke="currentColor" stroke-width="2" fill="none" />
    <circle cx="12" cy="12" r="2" fill="currentColor" />
    <path d="M12 3V5" stroke="currentColor" stroke-width="2" stroke-linecap="round" />
    <path d="M12 19V21" stroke="currentColor" stroke-width="2" stroke-linecap="round" />
    <path d="M3 12H5" stroke="currentColor" stroke-width="2" stroke-linecap="round" />
    <path d="M19 12H21" stroke="currentColor" stroke-width="2" stroke-linecap="round" />
  </symbol>

  <symbol id="icon-goals" viewBox="0 0 24 24">
    <path d="M6 20V4" stroke="currentColor" stroke-width="2" stroke-linecap="round" />
    <path d="M7 5H18L15 9L18 13H7" stroke="currentColor" stroke-width="2" stroke-linejoin="round" fill="none" />
  </symbol>

  <symbol id="icon-notes" viewBox="0 0 24 24">
    <rect x="5" y="3" width="14" height="18" rx="2" stroke="currentColor" stroke-width="2" fill="none" />
    <path d="M8 8H16" stroke="currentColor" stroke-width="2" stroke-linecap="round" />
    <path d="M8 12H16" stroke="currentColor" stroke-width="2" stroke-linecap="round" />
    <path d="M8 16H13" stroke="currentColor" stroke-width="2" stroke-linecap="round" />
  </symbol>

  <symbol id="icon-settings" viewBox="0 0 24 24">
    <path d="M12 8.8A3.2 3.2 0 1 0 12 15.2A3.2 3.2 0 1 0 12 8.8Z" fill="currentColor" />
    <path d="M19 12L21 13.2L20 16L17.8 16.2L16.6 18.2L17.3 20.2L14.6 21.2L13.2 19.5H10.8L9.4 21.2L6.7 20.2L7.4 18.2L6.2 16.2L4 16L3 13.2L5 12L3 10.8L4 8L6.2 7.8L7.4 5.8L6.7 3.8L9.4 2.8L10.8 4.5H13.2L14.6 2.8L17.3 3.8L16.6 5.8L17.8 7.8L20 8L21 10.8L19 12Z" stroke="currentColor" stroke-width="1.5" fill="none" stroke-linejoin="round" />
  </symbol>

  <symbol id="icon-pomodoro" viewBox="0 0 24 24">
    <path d="M12 4C11 4 10 3.5 10 3C10 3 11 2 12 2C13 2 14 3 14 3C14 3.5 13 4 12 4Z" fill="currentColor"/>
    <ellipse cx="12" cy="14" rx="8" ry="8" stroke="currentColor" stroke-width="2" fill="none"/>
    <path d="M12 10V14L15 16" stroke="currentColor" stroke-width="2" stroke-linecap="round" stroke-linejoin="round"/>
  </symbol>

  <symbol id="icon-sounds" viewBox="0 0 24 24">
    <polygon points="11,5 6,9 2,9 2,15 6,15 11,19" fill="currentColor"/>
    <path d="M19.07 4.93a10 10 0 0 1 0 14.14" stroke="currentColor" stroke-width="2" stroke-linecap="round" fill="none"/>
    <path d="M15.54 8.46a5 5 0 0 1 0 7.07" stroke="currentColor" stroke-width="2" stroke-linecap="round" fill="none"/>
  </symbol>

  <symbol id="icon-energy" viewBox="0 0 24 24">
    <path d="M13 2L4 13h6l-1 9 9-11h-6l1-9z" fill="currentColor" />
  </symbol>
</svg>
